<?xml version="1.0" encoding="iso-8859-1"?>
<!-- Generator: Adobe Illustrator 16.0.0, SVG Export Plug-In . SVG Version: 6.00 Build 0)  -->
<!DOCTYPE svg PUBLIC "-//W3C//DTD SVG 1.1//EN" "http://www.w3.org/Graphics/SVG/1.1/DTD/svg11.dtd">
<svg version="1.1" id="Capa_1" xmlns="http://www.w3.org/2000/svg" xmlns:xlink="http://www.w3.org/1999/xlink" x="0px" y="0px"
	 width="52.195px" height="52.195px" viewBox="0 0 52.195 52.195" style="enable-background:new 0 0 52.195 52.195;"
	 xml:space="preserve">
<g>
	<g>
		<path d="M40.294,30.35H12.115l-2.529,2.803c-0.459,0.509-0.833,1.477-0.833,2.16v4.879c0,0.686,0.557,1.241,1.241,1.241h31.883
			c0.685,0,1.24-0.556,1.24-1.241v-4.879c0-0.684-0.336-1.682-0.75-2.229L40.294,30.35z"/>
		<path d="M40.638,29.368v-8.539c0-1.255,1.021-2.275,2.276-2.275h1.24V5.378C44.154,2.407,41.747,0,38.777,0H12.304
			c-2.97,0-5.377,2.407-5.377,5.378v12.615h2.345c1.254,0,2.275,1.02,2.275,2.275v9.1H40.638z"/>
		<path d="M10.023,20.829c0-0.686-0.555-1.24-1.24-1.24H5.061c-0.686,0-1.483,0.5-1.781,1.116l-1.918,3.971
			c-0.298,0.618-0.541,1.672-0.541,2.358v19.75h1.895v4.997c0,0.228,0.185,0.414,0.414,0.414h2.62c0.228,0,0.414-0.188,0.414-0.414
			v-4.997h0.965V35.305c0-0.684,0.386-1.64,0.862-2.133l2.033-2.107V20.829z"/>
		<path d="M48.917,20.705c-0.3-0.617-1.098-1.116-1.781-1.116h-3.724c-0.684,0-1.241,0.555-1.241,1.24v10.235l2.035,2.108
			c0.476,0.494,0.862,1.448,0.862,2.134v11.479h0.965v4.997c0,0.228,0.186,0.413,0.413,0.413h2.62c0.228,0,0.413-0.187,0.413-0.413
			v-4.998h1.896V27.032c0-0.685-0.241-1.74-0.541-2.357L48.917,20.705z M50.798,28.406h-0.25v1.943c0,0.115-0.092,0.208-0.206,0.208
			h-1.965c-0.113,0-0.206-0.093-0.206-0.208c0-0.113,0.093-0.206,0.206-0.206h1.758v-1.737h-2.687v2.512h-1.211v-2.512H43.62v1.737
			h1.758c0.113,0,0.206,0.093,0.206,0.206c0,0.115-0.093,0.208-0.206,0.208h-1.966c-0.113,0-0.205-0.093-0.205-0.208v-1.943h-0.318
			v-2.141h7.909V28.406L50.798,28.406z"/>
	</g>
</g>
<g>
</g>
<g>
</g>
<g>
</g>
<g>
</g>
<g>
</g>
<g>
</g>
<g>
</g>
<g>
</g>
<g>
</g>
<g>
</g>
<g>
</g>
<g>
</g>
<g>
</g>
<g>
</g>
<g>
</g>
</svg>
